<?xml version="1.0" encoding="UTF-8"?>
<svg version="1.1" xmlns="http://www.w3.org/2000/svg" width="802" height="816">
<path d="M0 0 C0.85332413 -0.00701431 1.70664825 -0.01402863 2.58583069 -0.02125549 C5.32550405 -0.03865612 8.0649609 -0.04510827 10.8046875 -0.046875 C11.74309479 -0.04754974 12.68150208 -0.04822449 13.64834595 -0.04891968 C28.1952903 -0.03231482 42.34307079 0.55301508 56.6796875 3.203125 C57.57929199 3.3587793 58.47889648 3.51443359 59.40576172 3.67480469 C83.67925456 7.96213764 107.63225504 16.23051547 129.6796875 27.203125 C130.33356445 27.52458496 130.98744141 27.84604492 131.66113281 28.17724609 C157.46096937 40.98440687 157.46096937 40.98440687 165.6796875 49.203125 C168.59343129 49.53596791 168.59343129 49.53596791 172.05712891 49.52197266 C172.71091019 49.53201828 173.36469147 49.5420639 174.0382843 49.55241394 C176.20259712 49.58334289 178.36678573 49.60030754 180.53125 49.6171875 C182.03055904 49.6358914 183.52985748 49.65546422 185.02914429 49.6758728 C188.97792312 49.72728253 192.92673613 49.76686068 196.87567139 49.80401611 C200.90418001 49.84400056 204.93254544 49.89511817 208.9609375 49.9453125 C216.86708983 50.04217636 224.77331279 50.1265474 232.6796875 50.203125 C232.12148245 56.89621347 231.17862167 63.39525657 229.83203125 69.97265625 C229.56780113 71.29870125 229.56780113 71.29870125 229.29823303 72.65153503 C228.74239044 75.44049067 228.18057301 78.22818397 227.6171875 81.015625 C226.87085902 84.70857121 226.13078219 88.4026893 225.39453125 92.09765625 C225.13675148 93.35712822 225.13675148 93.35712822 224.87376404 94.64204407 C223.13821516 101.96032501 223.13821516 101.96032501 225.33203125 108.7890625 C226.08613281 109.70945312 226.84023438 110.62984375 227.6171875 111.578125 C232.9983598 118.41363944 237.42437956 125.62431594 241.6796875 133.203125 C242.33372559 134.36545654 242.33372559 134.36545654 243.00097656 135.55126953 C265.23947722 175.49996207 276.21218072 219.6570364 275.8046875 265.265625 C275.7634375 271.845 275.7221875 278.424375 275.6796875 285.203125 C295.4796875 285.203125 315.2796875 285.203125 335.6796875 285.203125 C330.88966256 294.18442177 326.1139895 303.03067895 320.9296875 311.765625 C316.37216387 319.5065691 311.94005924 327.29479206 307.6796875 335.203125 C303.49782808 342.96334138 299.15163148 350.60643611 294.6796875 358.203125 C289.64417316 366.75936626 284.79551633 375.39319222 280.07592773 384.12719727 C275.75417906 392.11127456 271.26451254 399.99157485 266.7421875 407.86328125 C263.54970806 413.4203703 260.39279931 418.99721642 257.2421875 424.578125 C256.70215088 425.53452881 256.16211426 426.49093262 255.60571289 427.47631836 C254.51060377 429.41610025 253.41563336 431.35596045 252.32080078 433.29589844 C249.06685087 439.06025957 245.80870749 444.82225209 242.55053711 450.58422852 C239.86352778 455.33674284 237.17898064 460.09061094 234.5 464.84765625 C231.81881708 469.60804851 229.12344701 474.36026267 226.42578125 479.11132812 C224.86397982 481.87679979 223.31588566 484.6495124 221.77285767 487.42549133 C220.44948858 489.80001124 219.11457509 492.16792046 217.77752686 494.53475952 C216.83135127 496.2181851 215.89910454 497.90941571 214.96728516 499.60083008 C211.23077902 506.18763945 207.66061025 511.71266363 200.6796875 515.203125 C198.5555175 515.29487534 196.42839295 515.32063194 194.30224609 515.31665039 C193.32157417 515.31686943 193.32157417 515.31686943 192.3210907 515.3170929 C190.15673523 515.31639536 187.99246546 515.3086104 185.828125 515.30078125 C184.32882738 515.29891651 182.82952916 515.29749287 181.33023071 515.29649353 C177.38137128 515.29267279 173.43254854 515.28284628 169.48370361 515.27178955 C165.45528663 515.26156591 161.42686372 515.25699387 157.3984375 515.25195312 C149.49217065 515.24122362 141.58593364 515.2241525 133.6796875 515.203125 C133.34017131 513.64195681 133.00836206 512.07911162 132.6796875 510.515625 C132.4940625 509.64550781 132.3084375 508.77539062 132.1171875 507.87890625 C131.68996703 505.26599536 131.60352549 502.84499462 131.6796875 500.203125 C130.27396484 500.91275391 130.27396484 500.91275391 128.83984375 501.63671875 C96.56741203 517.56496216 59.53996727 528.20516097 23.359375 528.40625 C22.50605087 528.41326431 21.65272675 528.42027863 20.77354431 528.42750549 C18.03387095 528.44490612 15.2944141 528.45135827 12.5546875 528.453125 C11.61628021 528.45379974 10.67787292 528.45447449 9.71102905 528.45516968 C-4.8359153 528.43856482 -18.98369579 527.85323492 -33.3203125 525.203125 C-34.66971924 524.96964355 -34.66971924 524.96964355 -36.04638672 524.73144531 C-60.29344488 520.44878142 -84.31658796 512.20498727 -106.3203125 501.203125 C-108.44119863 501.10538873 -110.56523402 501.07406915 -112.68836975 501.07182312 C-113.34934754 501.06970741 -114.01032534 501.06759169 -114.69133276 501.06541187 C-116.91671549 501.05939784 -119.14204174 501.06041303 -121.36743164 501.0612793 C-122.95901588 501.0582486 -124.55059924 501.0547274 -126.1421814 501.05075073 C-129.57599548 501.04285237 -133.00979912 501.0377132 -136.44362068 501.03446007 C-141.8776836 501.02855403 -147.31168087 501.01201593 -152.74571228 500.99311829 C-154.60590072 500.98678046 -156.46608921 500.98045484 -158.32627773 500.97414112 C-159.25804958 500.97097531 -160.18982143 500.9678095 -161.14982879 500.96454775 C-173.8032432 500.92247825 -186.45662778 500.88951467 -199.11010742 500.87719727 C-207.64098086 500.86880756 -216.17169252 500.84628007 -224.70248502 500.8078416 C-229.21603432 500.78810551 -233.72934189 500.77566807 -238.24293709 500.78067589 C-242.49397279 500.78533458 -246.74455126 500.7714506 -250.99549484 500.74366379 C-252.55104382 500.73677152 -254.10664027 500.73660423 -255.66218758 500.74386406 C-267.53706479 500.79366228 -275.75920292 499.23711683 -284.59765625 490.99609375 C-290.37308998 484.98492803 -292.56350096 478.82684857 -292.58773804 470.58856201 C-292.59626801 469.27374344 -292.60479797 467.95892487 -292.61358643 466.60426331 C-292.61288749 465.15902698 -292.61196447 463.71379075 -292.61083984 462.26855469 C-292.61682834 460.73711317 -292.62363462 459.20567467 -292.63119507 457.67424011 C-292.64883162 453.5232137 -292.65354951 449.37226979 -292.65482664 445.22120953 C-292.65625035 442.62435491 -292.66052417 440.02752112 -292.66582108 437.43067169 C-292.68431499 428.36115696 -292.69249266 419.29170093 -292.69091797 410.22216797 C-292.68971738 401.78450974 -292.71080504 393.34710764 -292.7424053 384.90951419 C-292.76861034 377.65238459 -292.77928346 370.39533841 -292.77800715 363.1381619 C-292.77749867 358.80961423 -292.78311809 354.48129419 -292.80436325 350.15279388 C-292.82381662 346.07820969 -292.82382206 342.00406855 -292.80932999 337.92946815 C-292.80724941 336.44042878 -292.8118977 334.95136115 -292.8240509 333.46236992 C-292.9123186 321.89147749 -291.48354691 312.65196724 -283.3203125 303.9609375 C-277.75310268 299.067882 -271.59511935 296.27830415 -264.2109375 295.88671875 C-263.45683594 295.84482422 -262.70273437 295.80292969 -261.92578125 295.75976562 C-261.14847656 295.72044922 -260.37117188 295.68113281 -259.5703125 295.640625 C-258.77753906 295.59744141 -257.98476563 295.55425781 -257.16796875 295.50976562 C-255.21893435 295.40409509 -253.26964502 295.30314534 -251.3203125 295.203125 C-251.39014343 294.58938019 -251.45997437 293.97563538 -251.53192139 293.34329224 C-252.16101636 287.50713764 -252.49082396 281.75074588 -252.5234375 275.8828125 C-252.53045181 275.02948837 -252.53746613 274.17616425 -252.54469299 273.29698181 C-252.56209362 270.55730845 -252.56854577 267.8178516 -252.5703125 265.078125 C-252.57098724 264.13971771 -252.57166199 263.20131042 -252.57235718 262.23446655 C-252.55575232 247.6875222 -251.97042242 233.53974171 -249.3203125 219.203125 C-249.1646582 218.30352051 -249.00900391 217.40391602 -248.84863281 216.47705078 C-243.57266978 186.6062541 -232.76828621 152.06451421 -214.86206055 127.17626953 C-213.4704296 125.21764316 -212.27594937 123.40835421 -211.3203125 121.203125 C-211.72737455 117.83200156 -211.72737455 117.83200156 -213.6328125 114.578125 C-214.31562915 113.19166467 -214.99786673 111.80491909 -215.6796875 110.41796875 C-216.08767578 109.61987793 -216.49566406 108.82178711 -216.91601562 107.99951172 C-219.54784474 102.75873101 -221.98959424 97.42630222 -224.46298218 92.10943604 C-225.35714139 90.19557161 -226.26077125 88.28647967 -227.16723633 86.37841797 C-231.23703312 77.77589638 -234.85526232 69.06662712 -238.3203125 60.203125 C-239.6403125 56.903125 -240.9603125 53.603125 -242.3203125 50.203125 C-221.2003125 50.203125 -200.0803125 50.203125 -178.3203125 50.203125 C-176.0103125 55.153125 -173.7003125 60.103125 -171.3203125 65.203125 C-170.3303125 66.853125 -169.3403125 68.503125 -168.3203125 70.203125 C-167.75828125 69.65527344 -167.19625 69.10742188 -166.6171875 68.54296875 C-123.1114519 27.50611692 -60.17210856 0.33443208 0 0 Z M-158.3203125 93.203125 C-155.71371559 102.04375027 -151.71589168 110.15876467 -147.7578125 118.453125 C-146.7271374 120.62306893 -145.69793586 122.79369818 -144.67018127 124.96502686 C-144.03441318 126.30715219 -143.39677254 127.64839267 -142.75694275 128.98858643 C-141.15817205 132.35280329 -139.65779943 135.72640363 -138.3203125 139.203125 C-135.3084523 137.88102209 -133.51491119 136.56922997 -131.47265625 134 C-130.95574219 133.35675781 -130.43882812 132.71351563 -129.90625 132.05078125 C-129.09027344 131.01244141 -129.09027344 131.01244141 -128.2578125 129.953125 C-127.68417969 129.23511719 -127.11054688 128.51710938 -126.51953125 127.77734375 C-124.77787866 125.59257159 -123.04718576 123.39959102 -121.3203125 121.203125 C-120.83578613 120.58759766 -120.35125977 119.97207031 -119.85205078 119.33789062 C-118.06252705 117.06228408 -116.27504157 114.78512469 -114.49267578 112.50390625 C-109.84360676 106.56333562 -105.07470686 100.72173542 -100.30859375 94.875 C-97.96309717 91.99700046 -95.63429703 89.10656664 -93.3203125 86.203125 C-89.76815851 81.75725209 -86.2066954 77.31904527 -82.6328125 72.890625 C-82.08560547 72.20806641 -81.53839844 71.52550781 -80.97460938 70.82226562 C-72.91542806 60.85872234 -64.51767416 52.92163766 -51.3203125 51.203125 C-48.37010618 51.04773429 -45.42312248 51.01877491 -42.46923828 50.99780273 C-41.16582237 50.98295334 -41.16582237 50.98295334 -39.83607483 50.96780396 C-36.97928543 50.93635211 -34.12247943 50.91149637 -31.265625 50.88671875 C-29.27879416 50.86613512 -27.29196756 50.84513828 -25.30514526 50.82374573 C-20.08723393 50.76867058 -14.86928403 50.71919734 -9.65130615 50.67089844 C-4.32219021 50.62057686 1.00687005 50.56494652 6.3359375 50.50976562 C16.78380654 50.40236221 27.23172403 50.30087797 37.6796875 50.203125 C38.0297435 51.91609268 38.0297435 51.91609268 38.38687134 53.66366577 C40.82961768 65.50480141 43.56140633 77.25356737 46.453125 88.9921875 C46.90414432 90.83321271 47.3548719 92.67430941 47.80532837 94.51547241 C48.98069353 99.31659477 50.15959162 104.11684202 51.3394165 108.91687012 C53.21656925 116.55714928 55.08771414 124.19890415 56.96009064 131.84035492 C57.63404982 134.59035834 58.3084317 137.34025786 58.98284912 140.09014893 C62.258273 153.45090382 65.49618904 166.82012762 68.6796875 180.203125 C70.8359161 178.09570255 72.51162582 176.09188511 74.10546875 173.52734375 C74.5648584 172.79346436 75.02424805 172.05958496 75.49755859 171.3034668 C75.99078613 170.507229 76.48401367 169.71099121 76.9921875 168.890625 C78.07377567 167.16118115 79.15582517 165.43202576 80.23828125 163.703125 C80.80272949 162.79949219 81.36717773 161.89585937 81.94873047 160.96484375 C84.79401755 156.42522634 87.67471026 151.90828387 90.5546875 147.390625 C91.73701292 145.53387566 92.91930432 143.67710466 94.1015625 141.8203125 C95.89119351 139.01068961 97.6809484 136.20114565 99.47070312 133.39160156 C105.55573441 123.83843496 111.63654343 114.28285889 117.6796875 104.703125 C122.12727085 97.65462011 126.58534306 90.61285426 131.0546875 83.578125 C131.62574219 82.67771484 132.19679688 81.77730469 132.78515625 80.84960938 C135.97180897 75.83828079 139.22097785 70.88655655 142.60009766 66.00244141 C143.85118609 64.26701827 143.85118609 64.26701827 143.6796875 62.203125 C141.54071724 60.72182663 139.42245751 59.38659173 137.1796875 58.078125 C136.50260742 57.67924072 135.82552734 57.28035645 135.12792969 56.86938477 C104.90481256 39.29723848 71.55119634 27.67413167 36.6796875 24.203125 C35.6071875 24.09226563 34.5346875 23.98140625 33.4296875 23.8671875 C-36.70539541 17.74690904 -108.84212894 42.62338633 -158.3203125 93.203125 Z M6.6796875 117.203125 C4.64608802 125.78582306 2.80117742 134.38459688 1.13598633 143.04589844 C0.78420067 144.86050064 0.78420067 144.86050064 0.42530823 146.71176147 C-0.20843645 149.98335604 -0.84012756 153.25533338 -1.47079253 156.52752209 C-2.13383889 159.9652889 -2.79942454 163.40256413 -3.4646759 166.83990479 C-4.57820503 172.59544026 -5.68997142 178.35131389 -6.80053711 184.10742188 C-8.08523715 190.76601885 -9.37223047 197.42416926 -10.6605379 204.08206916 C-12.0351238 211.18589205 -13.40828754 218.28998922 -14.78090501 225.3941927 C-15.17619588 227.43964554 -15.57172931 229.48505136 -15.96730614 231.53044891 C-16.7009526 235.32443956 -17.43297696 239.11874215 -18.16479492 242.91308594 C-18.49435181 244.61629501 -18.49435181 244.61629501 -18.83056641 246.35391235 C-19.12697273 247.89282639 -19.12697273 247.89282639 -19.42936707 249.46282959 C-19.60245486 250.3594418 -19.77554266 251.256054 -19.95387554 252.17983627 C-20.35001424 254.02442313 -20.35001424 254.02442313 -20.3203125 255.203125 C-13.0603125 255.203125 -5.8003125 255.203125 1.6796875 255.203125 C1.6796875 243.323125 1.6796875 231.443125 1.6796875 219.203125 C8.6096875 219.203125 15.5396875 219.203125 22.6796875 219.203125 C22.6796875 231.083125 22.6796875 242.963125 22.6796875 255.203125 C34.5596875 255.203125 46.4396875 255.203125 58.6796875 255.203125 C58.6796875 262.133125 58.6796875 269.063125 58.6796875 276.203125 C46.7996875 276.203125 34.9196875 276.203125 22.6796875 276.203125 C22.6796875 279.173125 22.6796875 282.143125 22.6796875 285.203125 C56.9996875 285.203125 91.3196875 285.203125 126.6796875 285.203125 C129.08658515 275.67127913 129.08658515 275.67127913 131.1414032 266.09913635 C131.38953766 264.82774307 131.63767212 263.55634979 131.89332581 262.24642944 C132.15641001 260.88117774 132.41942346 259.5159124 132.68237305 258.15063477 C132.96826164 256.67911219 133.25442278 255.20764254 133.54083252 253.73622131 C134.31025148 249.77863954 135.07555713 245.82027339 135.83981299 241.86169171 C136.47986455 238.54836349 137.12190302 235.23542151 137.76390868 231.92247146 C139.27765493 224.11075815 140.78798048 216.29838889 142.29614258 208.4855957 C143.85063103 200.43314314 145.41095964 192.38183763 146.97411698 184.33106381 C148.31936107 177.40151486 149.66099957 170.47127453 150.99974281 163.54046673 C151.79799442 159.40803349 152.59760836 155.2758759 153.40070152 151.14438057 C154.15426936 147.26683496 154.90332968 143.38844544 155.64892578 139.50935936 C155.92304791 138.08724657 156.19875743 136.6654387 156.47617531 135.24396515 C156.85473757 133.30288902 157.22698754 131.360585 157.59892273 129.41822815 C157.80888225 128.33227136 158.01884176 127.24631456 158.23516369 126.12744999 C158.64545999 123.4282926 158.7668244 120.92703997 158.6796875 118.203125 C154.84204676 121.62707511 152.51082174 125.51156051 149.9296875 129.890625 C145.32856867 137.55862615 140.57775701 145.11837317 135.7421875 152.640625 C130.98819792 160.04191241 126.24349813 167.44784189 121.5546875 174.890625 C114.37097447 186.28967514 107.12778914 197.65073425 99.88867188 209.01464844 C96.95747394 213.61646903 94.02775182 218.21921143 91.1015625 222.82421875 C88.78644303 226.46728332 86.46230913 230.10439521 84.1328125 233.73828125 C83.02332903 235.47649327 81.91394944 237.2147716 80.8046875 238.953125 C80.28632324 239.7577417 79.76795898 240.5623584 79.23388672 241.39135742 C78.7648291 242.12845947 78.29577148 242.86556152 77.8125 243.625 C77.39887207 244.27049805 76.98524414 244.91599609 76.55908203 245.58105469 C75.52081848 247.18864476 75.52081848 247.18864476 75.6796875 249.203125 C64.1296875 249.203125 52.5796875 249.203125 40.6796875 249.203125 C39.3596875 243.593125 38.0396875 237.983125 36.6796875 232.203125 C35.82885073 228.72024759 34.97338326 225.23978731 34.10180664 221.76220703 C33.8751683 220.85390137 33.64852997 219.9455957 33.4150238 219.00976562 C32.68279439 216.07653071 31.948891 213.14371798 31.21484375 210.2109375 C30.69438461 208.12842487 30.17399523 206.0458948 29.65367126 203.96334839 C28.56943782 199.62495119 27.48436704 195.28676454 26.39868164 190.94873047 C25.0210788 185.4440079 23.64558551 179.93876082 22.27073002 174.43335152 C21.19825118 170.13978712 20.12463111 165.84650869 19.05068779 161.55331039 C18.54370226 159.52602597 18.03705392 157.49865719 17.53077888 155.47119522 C14.33846281 142.69030568 11.06448295 129.93444263 7.6796875 117.203125 C7.3496875 117.203125 7.0196875 117.203125 6.6796875 117.203125 Z M-57.3203125 128.203125 C-58.62233481 129.71854289 -59.88498517 131.26777875 -61.1328125 132.828125 C-64.79048528 137.35224173 -68.51916207 141.79908768 -72.3203125 146.203125 C-75.8566556 150.3052165 -79.34895436 154.43115431 -82.7578125 158.640625 C-86.35667674 163.07552304 -90.06771672 167.39872449 -93.8203125 171.703125 C-99.11018217 177.77283748 -104.30824091 183.90006527 -109.3203125 190.203125 C-109.8095369 190.71633301 -110.29876129 191.22954102 -110.80281067 191.75830078 C-113.09837885 195.45665592 -113.61440141 199.34620383 -114.4050293 203.58984375 C-114.59078522 204.5398526 -114.77654114 205.48986145 -114.96792603 206.46865845 C-115.57886042 209.60740137 -116.17438561 212.74885332 -116.76953125 215.890625 C-117.19039964 218.07266975 -117.61210824 220.25455259 -118.03462219 222.4362793 C-118.91772662 227.008049 -119.79377803 231.58109273 -120.66430664 236.15527344 C-121.78090488 242.02179023 -122.91005931 247.88579665 -124.04387188 253.74900818 C-124.91444032 258.25388407 -125.78081769 262.75955697 -126.64566994 267.26553345 C-127.06080787 269.42825178 -127.47667713 271.59082987 -127.89328575 273.75326538 C-128.47401204 276.77358431 -129.04968662 279.79482035 -129.6237793 282.81640625 C-129.79673019 283.71211334 -129.96968109 284.60782043 -130.14787292 285.53067017 C-130.3811731 286.76712784 -130.3811731 286.76712784 -130.6191864 288.02856445 C-130.75540248 288.74236771 -130.89161856 289.45617096 -131.03196239 290.19160461 C-131.4149117 292.52436533 -131.4149117 292.52436533 -131.3203125 296.203125 C-117.1303125 296.203125 -102.9403125 296.203125 -88.3203125 296.203125 C-84.5086984 278.12066467 -80.89148022 260.00513791 -77.36125731 241.86618447 C-76.92013295 239.59988786 -76.47862612 237.33366607 -76.0370121 235.06746483 C-74.64949051 227.94671242 -73.26318196 220.8257256 -71.87877005 213.70436794 C-70.29007071 205.53218354 -68.69720507 197.36082529 -67.10086745 189.19012958 C-65.85755781 182.82508119 -64.61783361 176.45934111 -63.38085061 170.0930602 C-62.6454056 166.30841131 -61.9084679 162.52406814 -61.16777611 158.74044228 C-60.47496798 155.20089247 -59.78661362 151.66050554 -59.10168457 148.11942291 C-58.73033433 146.20558594 -58.35434937 144.29265007 -57.97822571 142.37974548 C-57.75826935 141.23798859 -57.53831299 140.09623169 -57.31169128 138.9198761 C-57.11907809 137.93062291 -56.9264649 136.94136972 -56.72801495 135.92213917 C-56.33506053 133.30148129 -56.2438251 130.84816489 -56.3203125 128.203125 C-56.6503125 128.203125 -56.9803125 128.203125 -57.3203125 128.203125 Z M215.6796875 137.203125 C211.91024652 156.45651667 208.14607122 175.71093071 204.38810825 194.96656609 C202.64297836 203.90788605 200.8961472 212.84886727 199.14526367 221.7890625 C197.61864735 229.58414896 196.09527108 237.37986051 194.57573169 245.17632973 C193.77153901 249.30189509 192.96576164 253.42713621 192.15609932 257.55163193 C191.3928965 261.4397298 190.63405345 265.32865401 189.87843704 269.21823311 C189.60148841 270.63984673 189.32299617 272.06116072 189.04277992 273.48213387 C188.65787647 275.43523952 188.27927107 277.38958309 187.90089417 279.34396362 C187.68795999 280.43352293 187.47502581 281.52308224 187.25563908 282.64565849 C186.52853174 287.13676521 186.13238814 291.67611862 185.6796875 296.203125 C174.7896875 296.203125 163.8996875 296.203125 152.6796875 296.203125 C153.42896431 304.83374598 153.42896431 304.83374598 154.5904541 313.35165405 C154.85539421 314.97901489 154.85539421 314.97901489 155.12568665 316.63925171 C155.31688583 317.78874298 155.50808502 318.93823425 155.70507812 320.12255859 C155.90844284 321.36459045 156.11180756 322.60662231 156.32133484 323.8862915 C156.87357534 327.25835779 157.43062736 330.62961252 157.98866081 334.00072432 C158.57415422 337.54264623 159.15528045 341.08528474 159.73693848 344.62783813 C160.71281891 350.56758852 161.69157126 356.50685953 162.67236328 362.44580078 C164.05450098 370.81504973 165.43106306 379.18520901 166.80669498 387.55552936 C167.76230437 393.36876051 168.71930564 399.18176266 169.67652702 404.99472857 C169.90796861 406.4003044 170.13936426 407.80588779 170.37071419 409.21147871 C171.13057459 413.82789269 171.89203812 418.44403988 172.65429688 423.06005859 C172.94109566 424.80251358 172.94109566 424.80251358 173.23368835 426.58016968 C173.41031509 427.64815796 173.58694183 428.71614624 173.7689209 429.8164978 C173.92156151 430.74151785 174.07420212 431.6665379 174.2314682 432.61958885 C174.67173352 435.15727827 175.16292235 437.68000524 175.6796875 440.203125 C193.5281509 425.39269792 206.70514244 407.30487833 217.6171875 387.015625 C219.01108048 384.44035241 220.40788816 381.86666579 221.8046875 379.29296875 C222.14205429 378.66932434 222.47942108 378.04567993 222.82701111 377.40313721 C224.68610838 373.97915623 226.60047813 370.60294105 228.6171875 367.26953125 C242.55993691 344.08621014 248.95877291 315.93769276 251.6796875 289.203125 C251.79054688 288.22730469 251.90140625 287.25148438 252.015625 286.24609375 C256.85649432 236.33280598 245.72323424 178.84910847 216.6796875 137.203125 C216.3496875 137.203125 216.0196875 137.203125 215.6796875 137.203125 Z M-199.3203125 147.203125 C-215.51396806 175.13387151 -224.86802879 207.18773605 -228.3203125 239.203125 C-228.43246094 240.18410156 -228.54460937 241.16507812 -228.66015625 242.17578125 C-230.39633368 260.22726988 -229.43327758 278.2429218 -227.3203125 296.203125 C-217.0903125 296.203125 -206.8603125 296.203125 -196.3203125 296.203125 C-194.64276892 288.20530493 -192.97395767 280.20590254 -191.3203125 272.203125 C-191.17275513 271.48903725 -191.02519775 270.77494949 -190.87316895 270.03922272 C-188.84738939 260.22620072 -186.84839296 250.40814113 -184.88743591 240.58194923 C-184.0135323 236.20584823 -183.13059956 231.83195615 -182.22802734 227.46166992 C-181.3396344 223.15851817 -180.47391517 218.85136509 -179.62371826 214.54051018 C-179.29995986 212.91911303 -178.96830034 211.29927082 -178.62823486 209.68121529 C-176.03043613 197.72305128 -176.03043613 197.72305128 -179.3203125 186.203125 C-179.97468774 184.70536108 -180.62839247 183.20730407 -181.28149414 181.70898438 C-182.00891879 180.15233436 -182.74211325 178.5983701 -183.48046875 177.046875 C-183.87100937 176.21853149 -184.26154999 175.39018799 -184.66392517 174.53674316 C-185.48244984 172.80453058 -186.30357118 171.0735428 -187.12719727 169.34375 C-188.3908452 166.6862318 -189.64211497 164.02311821 -190.89257812 161.359375 C-191.69197402 159.67152702 -192.49207854 157.98401443 -193.29296875 156.296875 C-193.66696304 155.49906616 -194.04095734 154.70125732 -194.42628479 153.87927246 C-196.0971664 149.8535878 -196.0971664 149.8535878 -199.3203125 147.203125 Z M-23.3203125 276.203125 C-23.9803125 279.173125 -24.6403125 282.143125 -25.3203125 285.203125 C-16.4103125 285.203125 -7.5003125 285.203125 1.6796875 285.203125 C1.6796875 282.563125 1.6796875 279.923125 1.6796875 277.203125 C0.64175978 275.94131405 0.64175978 275.94131405 -1.63696289 276.08959961 C-3.13731079 276.09745483 -3.13731079 276.09745483 -4.66796875 276.10546875 C-5.74755859 276.10869141 -6.82714844 276.11191406 -7.93945312 276.11523438 C-9.64391602 276.12780273 -9.64391602 276.12780273 -11.3828125 276.140625 C-12.52298828 276.14513672 -13.66316406 276.14964844 -14.83789062 276.15429688 C-17.66541601 276.16612753 -20.4928389 276.1826109 -23.3203125 276.203125 Z M-258.3203125 330.203125 C-258.3203125 375.083125 -258.3203125 419.963125 -258.3203125 466.203125 C-195.6203125 466.203125 -132.9203125 466.203125 -68.3203125 466.203125 C-68.3203125 421.323125 -68.3203125 376.443125 -68.3203125 330.203125 C-131.0203125 330.203125 -193.7203125 330.203125 -258.3203125 330.203125 Z M-34.3203125 330.203125 C-34.3296582 334.60906006 -34.33900391 339.01499512 -34.34863281 343.55444336 C-34.38240678 358.11507245 -34.43775769 372.67556054 -34.50421524 387.2360754 C-34.54398031 396.06371798 -34.57638564 404.89127173 -34.59130859 413.71899414 C-34.60433827 421.41559275 -34.6313364 429.11199572 -34.67492557 436.80848414 C-34.69751093 440.88163166 -34.71322495 444.95453814 -34.71219635 449.02775383 C-34.71144799 452.86677378 -34.7294684 456.70526151 -34.76148033 460.54414368 C-34.76995325 461.94810112 -34.77174705 463.35211845 -34.76611519 464.75609016 C-34.73110073 474.83209049 -35.7471083 483.0114051 -42.8828125 490.578125 C-43.46160156 491.20460938 -44.04039062 491.83109375 -44.63671875 492.4765625 C-46.18559096 494.06496509 -47.74438919 495.64157181 -49.3203125 497.203125 C-46.90521809 497.87598712 -44.48850894 498.54158512 -42.0703125 499.203125 C-41.38839844 499.39390625 -40.70648438 499.5846875 -40.00390625 499.78125 C-36.61430338 500.70269544 -33.86252274 501.203125 -30.3203125 501.203125 C-28.07411359 491.76269828 -26.09187126 482.28306249 -24.22583008 472.76171875 C-23.9299937 471.26051054 -23.6339833 469.75933661 -23.33781433 468.25819397 C-22.5425285 464.22404397 -21.74999457 460.18935839 -20.95825791 456.1545105 C-20.46271324 453.62977031 -19.96656919 451.10514866 -19.47022057 448.58056641 C-17.73678393 439.76362095 -16.00564062 430.94622874 -14.27661133 422.12841797 C-12.66697777 413.91984205 -11.052181 405.71229307 -9.4350422 397.50519276 C-8.04309919 390.43975159 -6.65478583 383.37360352 -5.26929015 376.30689526 C-4.4432369 372.09395856 -3.61570906 367.88132474 -2.7844944 363.66940308 C-2.00465311 359.71716782 -1.22932823 355.76407323 -0.45747566 351.81027031 C-0.17370308 350.36073341 0.11168158 348.91151103 0.3987999 347.46263313 C0.79055513 345.48441248 1.17591729 343.50492898 1.56095886 341.52539062 C1.77829272 340.41860962 1.99562658 339.31182861 2.21954632 338.17150879 C2.80734126 334.88026637 2.80734126 334.88026637 2.6796875 330.203125 C-9.5303125 330.203125 -21.7403125 330.203125 -34.3203125 330.203125 Z M62.6796875 330.203125 C59.70564572 345.31544394 56.73182322 360.427806 53.75836277 375.54023933 C52.37655741 382.5631479 50.99466227 389.58603878 49.61254883 396.60888672 C49.20953686 398.65674879 48.80652769 400.70461142 48.40351987 402.75247431 C48.13579405 404.11287841 47.86805809 405.47328052 47.60031199 406.83368063 C46.14143496 414.24620312 44.6834515 421.65889921 43.22793579 429.07208252 C42.70945071 431.71245071 42.19091657 434.35280926 41.67236328 436.99316406 C41.42026911 438.27682484 41.16817493 439.56048561 40.90844154 440.8830452 C39.46793283 448.21197759 38.01874548 455.53911206 36.5599184 462.86441994 C35.70053621 467.18195009 34.84519158 471.50027462 33.99043083 475.81872177 C33.59786718 477.79609422 33.20329014 479.77306818 32.80655098 481.74960709 C32.26819597 484.43218532 31.73671099 487.11603861 31.20678711 489.80029297 C31.04985067 490.57250561 30.89291424 491.34471825 30.73122215 492.14033127 C29.93342187 496.22143575 29.51933689 500.04528869 29.6796875 504.203125 C56.67107756 503.36227173 106.56447317 496.31833933 126.6796875 476.203125 C126.50746464 468.10132206 124.89957627 460.05242712 123.47070312 452.10009766 C123.13639534 450.20778915 123.13639534 450.20778915 122.79533386 448.2772522 C122.18996407 444.85131563 121.57896986 441.42640462 120.966856 438.0016675 C120.32478537 434.40381935 119.68790334 430.80505273 119.05041504 427.20639038 C117.98078684 421.17237586 116.90785843 415.13895635 115.83251953 409.10595703 C114.3170754 400.60380574 112.80750795 392.10061891 111.29916477 383.5972054 C109.16615351 371.57405359 107.03033894 359.55139821 104.88867188 347.52978516 C104.57382088 345.75927795 104.57382088 345.75927795 104.25260925 343.95300293 C104.05915421 342.86818634 103.86569916 341.78336975 103.66638184 340.66567993 C103.49899254 339.7259112 103.33160324 338.78614246 103.15914154 337.81789589 C102.69278951 335.27457868 102.18678887 332.73863183 101.6796875 330.203125 C88.8096875 330.203125 75.9396875 330.203125 62.6796875 330.203125 Z " fill="#FE4141" transform="translate(378.3203125,153.796875)"/>
<path d="M0 0 C1.08864349 0.00539291 1.08864349 0.00539291 2.19927979 0.01089478 C2.96020432 0.01074875 3.72112885 0.01060272 4.50511169 0.01045227 C7.03202113 0.01115155 9.55885776 0.01894462 12.08575439 0.02676392 C13.83310404 0.02862804 15.58045421 0.03005197 17.32780457 0.03105164 C21.93591749 0.03487724 26.54399909 0.04470788 31.15209961 0.05575562 C35.85068335 0.06596883 40.54927214 0.07054906 45.24786377 0.07559204 C54.47378902 0.08633011 63.69969098 0.10340704 72.92559814 0.12442017 C76.21566264 11.17756855 78.98269997 22.324564 81.66387939 33.53848267 C82.11192213 35.40202841 82.56026758 37.26550139 83.00889587 39.12890625 C84.18414758 44.01317697 85.35607606 48.89823825 86.52703857 53.78353882 C88.61045363 62.47361502 90.69926082 71.16239643 92.78887939 79.85098267 C93.01175755 80.77820381 93.2346357 81.70542496 93.46426773 82.66074371 C97.19408776 98.17180207 101.00609519 113.66010516 104.92559814 129.12442017 C105.60533691 127.99995483 106.28507568 126.8754895 106.9854126 125.71694946 C114.42328267 113.42572794 122.15601424 101.3321134 129.92218018 89.24649048 C133.01832021 84.42155277 136.09855426 79.58655203 139.17559814 74.74942017 C139.75027832 73.84610962 140.3249585 72.94279907 140.91705322 72.01211548 C144.59742637 66.22304758 148.26506225 60.42604719 151.92559814 54.62442017 C158.02857693 44.95574792 164.13290375 35.28816843 170.30206299 25.66152954 C171.3396856 24.04002966 172.37418081 22.41652147 173.40460205 20.79043579 C184.28206575 3.64739952 184.28206575 3.64739952 190.8899231 1.48016357 C198.88992533 -0.22738753 206.8603325 -0.12968426 214.99591064 -0.07089233 C216.52861342 -0.06715442 218.06131862 -0.06431113 219.59402466 -0.06231689 C223.59542635 -0.05474167 227.59667898 -0.03514697 231.59802246 -0.01290894 C235.69417302 0.00768242 239.79034806 0.01671302 243.88653564 0.02676392 C251.89962429 0.04810576 259.91259259 0.08216627 267.92559814 0.12442017 C267.36739309 6.81750864 266.42453231 13.31655174 265.07794189 19.89395142 C264.81371178 21.21999641 264.81371178 21.21999641 264.54414368 22.5728302 C263.98830109 25.36178584 263.42648365 28.14947914 262.86309814 30.93692017 C262.11676967 34.62986638 261.37669283 38.32398446 260.64044189 42.01895142 C260.38266212 43.27842339 260.38266212 43.27842339 260.11967468 44.56333923 C258.3841258 51.88162018 258.3841258 51.88162018 260.57794189 58.71035767 C261.70909424 60.0909436 261.70909424 60.0909436 262.86309814 61.49942017 C268.24427045 68.3349346 272.67029021 75.54561111 276.92559814 83.12442017 C277.57963623 84.28675171 277.57963623 84.28675171 278.24688721 85.4725647 C300.48538786 125.42125723 311.45809137 169.57833157 311.05059814 215.18692017 C311.00934814 221.76629517 310.96809814 228.34567017 310.92559814 235.12442017 C330.72559814 235.12442017 350.52559814 235.12442017 370.92559814 235.12442017 C366.1355732 244.10571693 361.35990015 252.95197412 356.17559814 261.68692017 C351.61807452 269.42786426 347.18596988 277.21608722 342.92559814 285.12442017 C338.74373873 292.88463655 334.39754212 300.52773127 329.92559814 308.12442017 C324.89008381 316.68066142 320.04142697 325.31448738 315.32183838 334.04849243 C311.0000897 342.03256972 306.51042318 349.91287002 301.98809814 357.78457642 C298.79561871 363.34166546 295.63870996 368.91851159 292.48809814 374.49942017 C291.94806152 375.45582397 291.4080249 376.41222778 290.85162354 377.39761353 C289.75651442 379.33739541 288.66154401 381.27725562 287.56671143 383.2171936 C284.31276151 388.98155474 281.05461814 394.74354726 277.79644775 400.50552368 C275.10943842 405.25803801 272.42489128 410.0119061 269.74591064 414.76895142 C267.06472773 419.52934368 264.36935765 424.28155783 261.67169189 429.03262329 C260.10989046 431.79809495 258.56179631 434.57080756 257.01876831 437.3467865 C255.69539923 439.7213064 254.36048574 442.08921563 253.0234375 444.45605469 C252.07726192 446.13948027 251.14501518 447.83071088 250.2131958 449.52212524 C246.47668967 456.10893462 242.90652089 461.63395879 235.92559814 465.12442017 C233.80142814 465.21617051 231.6743036 465.24192711 229.54815674 465.23794556 C228.56748482 465.2381646 228.56748482 465.2381646 227.56700134 465.23838806 C225.40264587 465.23769052 223.23837611 465.22990556 221.07403564 465.22207642 C219.57473803 465.22021167 218.0754398 465.21878803 216.57614136 465.2177887 C212.62728192 465.21396796 208.67845918 465.20414144 204.72961426 465.19308472 C200.70119727 465.18286108 196.67277436 465.17828903 192.64434814 465.17324829 C184.73808129 465.16251879 176.83184428 465.14544767 168.92559814 465.12442017 C168.82608951 464.54536706 168.72658087 463.96631395 168.62405682 463.36971378 C166.28306593 449.77046257 163.85561098 436.19013843 161.33925438 422.62231636 C156.53236315 396.67796406 151.9153391 370.70110124 147.34869385 344.71353149 C146.30889726 338.79691776 145.26481366 332.881069 144.21969128 326.96539402 C143.39317836 322.2835778 142.56929565 317.60130141 141.74611855 312.91889763 C141.36234954 310.73806348 140.97773994 308.55737703 140.59215355 306.37686348 C137.97124112 291.54648228 135.5861625 276.6909625 133.33506584 261.80007172 C132.50217981 256.35760866 131.59650723 250.92761979 130.67559814 245.49942017 C130.09809814 242.07567017 129.52059814 238.65192017 128.92559814 235.12442017 C139.81559814 235.12442017 150.70559814 235.12442017 161.92559814 235.12442017 C162.62322266 231.32998413 163.32084717 227.5355481 164.03961182 223.62612915 C166.7047824 209.19914814 169.47700227 194.79335186 172.26934242 180.3905201 C173.12412093 175.9811299 173.97661622 171.57129995 174.82872009 167.16139221 C177.24696715 154.6474678 179.66655864 142.1338061 182.09185791 129.62124634 C183.4420225 122.65540288 184.78955287 115.68905538 186.13409299 108.72212404 C186.84182371 105.05553128 187.55092674 101.38921584 188.26333046 97.72352791 C189.05227317 93.66399147 189.83549156 89.60337127 190.6182251 85.54263306 C190.85348907 84.33708267 191.08875305 83.13153229 191.33114624 81.88945007 C191.54268845 80.78705994 191.75423065 79.6846698 191.97218323 78.5488739 C192.15742208 77.59209275 192.34266092 76.6353116 192.53351307 75.64953709 C193.0278884 72.8915437 193.0278884 72.8915437 192.92559814 69.12442017 C192.61557861 69.6296521 192.30555908 70.13488403 191.98614502 70.65542603 C184.70953027 82.49846077 177.31388328 94.25835132 169.80499268 105.95547485 C165.77965338 112.2261428 161.77290886 118.50752618 157.80059814 124.81192017 C150.61678966 136.21091067 143.37370019 147.57202879 136.13458252 158.9359436 C129.78262518 168.90816953 123.4351198 178.88318044 117.11309814 188.87442017 C116.60311279 189.67903687 116.09312744 190.48365356 115.56768799 191.31265259 C115.10185303 192.04975464 114.63601807 192.78685669 114.15606689 193.54629517 C113.74767578 194.19179321 113.33928467 194.83729126 112.91851807 195.50234985 C111.87278408 197.15876534 111.87278408 197.15876534 110.92559814 199.12442017 C99.37559814 199.12442017 87.82559814 199.12442017 75.92559814 199.12442017 C73.52415384 191.31972618 71.19701884 183.64529602 69.25592041 175.73867798 C69.0195285 174.78872955 68.7831366 173.83878113 68.5395813 172.86004639 C68.03333028 170.82374174 67.52870814 168.78703154 67.02560616 166.74994659 C66.22504712 163.50889385 65.41986698 160.26901846 64.61357117 157.02938843 C62.6122329 148.98424142 60.61859962 140.93718934 58.62481689 132.89016724 C56.93611811 126.07572869 55.24438366 119.26205713 53.54878044 112.44933319 C52.76327419 109.28814328 51.98209453 106.12590601 51.2011261 102.96359253 C48.38030597 91.59503017 45.35175815 80.32606275 41.92559814 69.12442017 C41.79528828 69.80173817 41.66497841 70.47905617 41.53071976 71.17689896 C38.34228694 87.74930034 35.15303816 104.32154448 31.9629097 120.89361954 C30.42013235 128.90814041 28.87761917 136.92271195 27.33575439 144.93740845 C25.98998666 151.93277817 24.64369626 158.92804707 23.29680896 165.92320132 C22.58537335 169.61818628 21.87417857 173.31321719 21.16361237 177.00836945 C20.49361232 180.4924595 19.82302322 183.97643557 19.15186071 187.46030188 C18.77236675 189.43045353 18.39323955 191.40067581 18.01411819 193.3708992 C16.93036185 198.98751276 15.83640607 204.60121844 14.69451904 210.20632935 C14.5089381 211.11839016 14.32335716 212.03045097 14.13215256 212.97014999 C13.80058826 214.58991137 13.46561402 216.20898169 13.1259346 217.8270607 C12.20864415 222.29609762 11.59140035 226.71742617 11.18284988 231.26251602 C10.92559814 233.12442017 10.92559814 233.12442017 9.92559814 235.12442017 C-2.94440186 235.12442017 -15.81440186 235.12442017 -29.07440186 235.12442017 C-30.06440186 240.56942017 -30.06440186 240.56942017 -31.07440186 246.12442017 C-38.33440186 246.12442017 -45.59440186 246.12442017 -53.07440186 246.12442017 C-51.74663942 236.33110751 -50.1131464 226.66636585 -48.20452881 216.96963501 C-47.91972678 215.50881737 -47.6352362 214.04793899 -47.35102844 212.58700562 C-46.58523909 208.65517399 -45.81515771 204.72419439 -45.04426217 200.79336119 C-44.22818495 196.62806242 -43.41619724 192.46196643 -42.60374451 188.29595947 C-41.06019817 180.38433602 -39.51310321 172.47341097 -37.96467894 164.56274092 C-36.22969115 155.69812697 -34.4984316 146.8327864 -32.76760924 137.96735835 C-30.64317983 127.08587727 -28.51835883 116.20447346 -26.39015198 105.32373047 C-26.08806365 103.7791222 -25.78597617 102.23451377 -25.48388958 100.68990517 C-25.03973362 98.41888072 -24.59554722 96.14786226 -24.15124667 93.8768661 C-22.48347557 85.3516301 -20.82095465 76.82540733 -19.16775513 68.29733276 C-19.01029294 67.48554255 -18.85283076 66.67375233 -18.690597 65.83736241 C-17.93917211 61.96337301 -17.18855968 58.08923062 -16.43970966 54.21474266 C-14.80504022 45.77369086 -13.10672165 37.34821197 -11.32440186 28.93692017 C-9.71223462 21.32573521 -8.22321217 13.71184959 -6.97381592 6.03189087 C-6.03204906 0.36053651 -5.78796549 0.01209787 0 0 Z M250.92559814 87.12442017 C247.15615716 106.37781184 243.39198186 125.63222587 239.6340189 144.88786125 C237.88888901 153.82918122 236.14205784 162.77016243 234.39117432 171.71035767 C232.864558 179.50544413 231.34118172 187.30115568 229.82164234 195.0976249 C229.01744965 199.22319026 228.21167228 203.34843138 227.40200996 207.47292709 C226.63880715 211.36102497 225.8799641 215.24994917 225.12434769 219.13952827 C224.84739906 220.5611419 224.56890682 221.98245588 224.28869057 223.40342903 C223.90378711 225.35653468 223.52518171 227.31087825 223.14680481 229.26525879 C222.93387063 230.3548181 222.72093645 231.4443774 222.50154972 232.56695366 C221.77444239 237.05806037 221.37829878 241.59741379 220.92559814 246.12442017 C210.03559814 246.12442017 199.14559814 246.12442017 187.92559814 246.12442017 C188.67487496 254.75504114 188.67487496 254.75504114 189.83636475 263.27294922 C190.10130486 264.90031006 190.10130486 264.90031006 190.37159729 266.56054688 C190.56279648 267.71003815 190.75399567 268.85952942 190.95098877 270.04385376 C191.15435349 271.28588562 191.3577182 272.52791748 191.56724548 273.80758667 C192.11948599 277.17965295 192.67653801 280.55090769 193.23457146 283.92201948 C193.82006487 287.46394139 194.4011911 291.00657991 194.98284912 294.5491333 C195.95872955 300.48888368 196.9374819 306.4281547 197.91827393 312.36709595 C199.30041162 320.73634489 200.6769737 329.10650417 202.05260563 337.47682452 C203.00821501 343.29005568 203.96521628 349.10305782 204.92243767 354.91602373 C205.15387925 356.32159956 205.38527491 357.72718296 205.61662483 359.13277388 C206.37648523 363.74918785 207.13794877 368.36533505 207.90020752 372.98135376 C208.1870063 374.72380875 208.1870063 374.72380875 208.479599 376.50146484 C208.65622574 377.56945312 208.83285248 378.63744141 209.01483154 379.73779297 C209.16747215 380.66281301 209.32011276 381.58783306 209.47737885 382.54088402 C209.91764417 385.07857344 210.40883299 387.6013004 210.92559814 390.12442017 C228.77406155 375.31399309 241.95105308 357.2261735 252.86309814 336.93692017 C254.25699112 334.36164757 255.65379881 331.78796095 257.05059814 329.21426392 C257.38796494 328.59061951 257.72533173 327.9669751 258.07292175 327.32443237 C259.93201902 323.9004514 261.84638878 320.52423621 263.86309814 317.19082642 C277.80584756 294.0075053 284.20468356 265.85898792 286.92559814 239.12442017 C287.03645752 238.14859985 287.14731689 237.17277954 287.26153564 236.16738892 C292.10240497 186.25410115 280.96914488 128.77040364 251.92559814 87.12442017 C251.59559814 87.12442017 251.26559814 87.12442017 250.92559814 87.12442017 Z " fill="#5555FE" transform="translate(343.07440185546875,203.87557983398438)"/>
<path d="M0 0 C0.85332413 -0.00701431 1.70664825 -0.01402863 2.58583069 -0.02125549 C5.32550405 -0.03865612 8.0649609 -0.04510827 10.8046875 -0.046875 C11.74309479 -0.04754974 12.68150208 -0.04822449 13.64834595 -0.04891968 C28.1952903 -0.03231482 42.34307079 0.55301508 56.6796875 3.203125 C57.57929199 3.3587793 58.47889648 3.51443359 59.40576172 3.67480469 C83.67925456 7.96213764 107.63225504 16.23051547 129.6796875 27.203125 C130.33356445 27.52458496 130.98744141 27.84604492 131.66113281 28.17724609 C139.71022992 32.17285593 147.37052018 36.76110529 154.9921875 41.515625 C155.82371338 42.03165283 156.65523926 42.54768066 157.51196289 43.0793457 C158.28531982 43.57007568 159.05867676 44.06080566 159.85546875 44.56640625 C160.54552002 45.00251221 161.23557129 45.43861816 161.9465332 45.88793945 C163.6796875 47.203125 163.6796875 47.203125 165.6796875 50.203125 C164.75027344 50.3990625 163.82085938 50.595 162.86328125 50.796875 C154.6854419 52.77524698 149.41400915 54.87026591 144.6796875 62.203125 C141.54583109 61.56913833 139.22836439 60.49110702 136.50390625 58.83203125 C135.68801025 58.34500732 134.87211426 57.8579834 134.03149414 57.35620117 C132.71266235 56.56886597 132.71266235 56.56886597 131.3671875 55.765625 C102.46639905 38.94270285 69.97552844 28.51729435 36.6796875 25.203125 C35.0709375 25.03683594 35.0709375 25.03683594 33.4296875 24.8671875 C-30.63619716 19.27653247 -93.99650847 39.3827532 -143.27734375 80.48046875 C-148.11157554 84.5664657 -152.90472373 88.65892684 -157.3203125 93.203125 C-154.49481457 102.82275916 -149.97142196 111.64027203 -145.63964844 120.6484375 C-144.61977422 122.77388965 -143.60659048 124.90243935 -142.59375 127.03125 C-142.28021576 127.67717102 -141.96668152 128.32309204 -141.64364624 128.98858643 C-140.03478703 132.37315197 -138.85544064 135.48641685 -138.3203125 139.203125 C-134.74631176 135.71238951 -131.40970996 132.09220464 -128.1953125 128.265625 C-127.72013184 127.70206299 -127.24495117 127.13850098 -126.75537109 126.55786133 C-122.93624368 121.99944648 -119.24771072 117.34692927 -115.59399414 112.65551758 C-111.44910186 107.33957766 -107.20474561 102.10830257 -102.94580078 96.88354492 C-100.05425693 93.33616478 -97.17271978 89.7821455 -94.3203125 86.203125 C-90.21032631 81.04807822 -86.04866323 75.93537375 -81.88671875 70.82226562 C-81.35433594 70.16806641 -80.82195312 69.51386719 -80.2734375 68.83984375 C-79.76192139 68.21368164 -79.25040527 67.58751953 -78.72338867 66.94238281 C-77.52310491 65.45450714 -76.35744774 63.93881087 -75.19921875 62.41796875 C-69.45081757 55.6417869 -60.099715 51.04729832 -51.3203125 50.203125 C-49.41937901 50.18182555 -47.51822739 50.17658402 -45.6171875 50.18359375 C-44.62557617 50.18641357 -43.63396484 50.1892334 -42.61230469 50.19213867 C-41.85594727 50.19576416 -41.09958984 50.19938965 -40.3203125 50.203125 C-47.897363 93.02807577 -47.897363 93.02807577 -51.84863281 111.81933594 C-52.26381716 113.91760714 -52.59203013 116.03269036 -52.90625 118.1484375 C-54.3774505 127.16753621 -58.85092698 132.21493964 -64.91992188 138.68164062 C-66.95551747 140.89325704 -68.81981614 143.23028141 -70.6953125 145.578125 C-74.86252374 150.70125567 -79.18343707 155.67907428 -83.52294922 160.65576172 C-87.42204942 165.13773471 -91.21207458 169.69133296 -94.921875 174.33203125 C-96.78251999 176.55935058 -98.67415368 178.67787944 -100.65625 180.79296875 C-101.24083984 181.42976562 -101.82542969 182.0665625 -102.42773438 182.72265625 C-103.56497724 183.956659 -104.71886913 185.17562878 -105.89257812 186.375 C-114.56226789 195.87689571 -114.95597776 212.22028214 -117.296875 224.484375 C-117.67101405 226.43068526 -118.04548058 228.3769326 -118.42025757 230.32312012 C-119.39921563 235.4106696 -120.37440366 240.49893378 -121.34857178 245.58740234 C-122.91357127 253.75863016 -124.48427123 261.92876379 -126.05515671 270.09886169 C-126.60199043 272.94592755 -127.14714763 275.79331047 -127.69204712 278.64074707 C-128.02594473 280.38094764 -128.35987638 282.12114169 -128.69384766 283.86132812 C-128.8445018 284.65095947 -128.99515594 285.44059082 -129.15037537 286.25415039 C-129.79355923 289.59956654 -130.49369796 292.89666684 -131.3203125 296.203125 C-152.7703125 296.203125 -174.2203125 296.203125 -196.3203125 296.203125 C-194.02737955 280.15259434 -194.02737955 280.15259434 -192.48510742 272.77026367 C-192.13167598 271.04127757 -191.77825756 269.31228881 -191.42485046 267.58329773 C-191.24136236 266.69317175 -191.05787426 265.80304577 -190.86882591 264.88594627 C-189.88327663 260.08896711 -188.92144581 255.28720099 -187.95507812 250.48632812 C-186.73159661 244.41609188 -185.50121432 238.34748069 -184.24731445 232.28344727 C-183.22648138 227.34343443 -182.2282948 222.39931077 -181.24489784 217.45171547 C-180.86838619 215.57905514 -180.48364928 213.70802797 -180.09032249 211.83882713 C-179.54158492 209.22603453 -179.02202393 206.60893014 -178.50854492 203.98901367 C-178.34193863 203.22985153 -178.17533234 202.47068939 -178.00367737 201.68852234 C-176.90299668 195.82876466 -178.0250897 191.64612769 -180.3203125 186.203125 C-180.66486984 185.36990219 -181.00942719 184.53667938 -181.36442566 183.6782074 C-181.67753189 183.02312698 -181.99063812 182.36804657 -182.31323242 181.69311523 C-182.85345284 180.55295204 -182.85345284 180.55295204 -183.40458679 179.38975525 C-183.78283096 178.6050032 -184.16107513 177.82025116 -184.55078125 177.01171875 C-184.94606522 176.18100357 -185.34134918 175.35028839 -185.74861145 174.49440002 C-186.99679976 171.8741138 -188.25216411 169.25734317 -189.5078125 166.640625 C-190.36180749 164.85114015 -191.21532759 163.06142858 -192.06835938 161.27148438 C-194.14686767 156.91272665 -196.2318134 152.55710389 -198.3203125 148.203125 C-215.37956134 174.81299232 -224.1408939 207.96348879 -227.3203125 239.203125 C-227.43117187 240.17894531 -227.54203125 241.15476562 -227.65625 242.16015625 C-229.39228081 260.06004145 -228.42996448 278.29017162 -227.3203125 296.203125 C-231.13279676 296.23199736 -234.9452532 296.24987992 -238.7578125 296.265625 C-239.84642578 296.27400391 -240.93503906 296.28238281 -242.05664062 296.29101562 C-243.09111328 296.29423828 -244.12558594 296.29746094 -245.19140625 296.30078125 C-246.14974365 296.30601807 -247.10808105 296.31125488 -248.09545898 296.31665039 C-250.3203125 296.203125 -250.3203125 296.203125 -251.3203125 295.203125 C-252.32953829 288.81524562 -252.48756118 282.33779704 -252.5234375 275.8828125 C-252.53045181 275.02948837 -252.53746613 274.17616425 -252.54469299 273.29698181 C-252.56209362 270.55730845 -252.56854577 267.8178516 -252.5703125 265.078125 C-252.57098724 264.13971771 -252.57166199 263.20131042 -252.57235718 262.23446655 C-252.55575232 247.6875222 -251.97042242 233.53974171 -249.3203125 219.203125 C-249.1646582 218.30352051 -249.00900391 217.40391602 -248.84863281 216.47705078 C-243.57266978 186.6062541 -232.76828621 152.06451421 -214.86206055 127.17626953 C-213.4704296 125.21764316 -212.27594937 123.40835421 -211.3203125 121.203125 C-211.72737455 117.83200156 -211.72737455 117.83200156 -213.6328125 114.578125 C-214.31562915 113.19166467 -214.99786673 111.80491909 -215.6796875 110.41796875 C-216.08767578 109.61987793 -216.49566406 108.82178711 -216.91601562 107.99951172 C-219.54784474 102.75873101 -221.98959424 97.42630222 -224.46298218 92.10943604 C-225.35714139 90.19557161 -226.26077125 88.28647967 -227.16723633 86.37841797 C-231.23703312 77.77589638 -234.85526232 69.06662712 -238.3203125 60.203125 C-239.6403125 56.903125 -240.9603125 53.603125 -242.3203125 50.203125 C-221.2003125 50.203125 -200.0803125 50.203125 -178.3203125 50.203125 C-176.0103125 55.153125 -173.7003125 60.103125 -171.3203125 65.203125 C-170.3303125 66.853125 -169.3403125 68.503125 -168.3203125 70.203125 C-167.75828125 69.65527344 -167.19625 69.10742188 -166.6171875 68.54296875 C-123.1114519 27.50611692 -60.17210856 0.33443208 0 0 Z " fill="#FE5454" transform="translate(378.3203125,153.796875)"/>
<path d="M0 0 C33.99835819 33.12361484 52.48680062 94.16691868 54.08641052 140.50306702 C54.11425151 143.05734017 54.11292811 145.60969298 54.09765625 148.1640625 C54.09664917 148.97963623 54.09564209 149.79520996 54.09460449 150.63549805 C54.08944049 153.63201336 54.07548028 156.62850835 54.0625 159.625 C54.041875 166.34875 54.02125 173.0725 54 180 C73.8 180 93.6 180 114 180 C109.20997506 188.98129677 104.434302 197.82755395 99.25 206.5625 C94.69247637 214.3034441 90.26037174 222.09166706 86 230 C81.81814058 237.76021638 77.47194398 245.40331111 73 253 C67.96448566 261.55624126 63.11582883 270.19006722 58.39624023 278.92407227 C54.07449156 286.90814956 49.58482504 294.78844985 45.0625 302.66015625 C41.87002056 308.2172453 38.71311181 313.79409142 35.5625 319.375 C35.02246338 320.33140381 34.48242676 321.28780762 33.92602539 322.27319336 C32.83091627 324.21297525 31.73594586 326.15283545 30.64111328 328.09277344 C27.38716337 333.85713457 24.12901999 339.61912709 20.87084961 345.38110352 C18.18384028 350.13361784 15.49929314 354.88748594 12.8203125 359.64453125 C10.13912958 364.40492351 7.44375951 369.15713767 4.74609375 373.90820312 C3.18429232 376.67367479 1.63619816 379.4463874 0.09317017 382.22236633 C-1.23019892 384.59688624 -2.56511241 386.96479546 -3.90216064 389.33163452 C-4.84833623 391.0150601 -5.78058296 392.70629071 -6.71240234 394.39770508 C-10.44890848 400.98451445 -14.01907725 406.50953863 -21 410 C-23.12417 410.09175034 -25.25129455 410.11750694 -27.37744141 410.11352539 C-28.35811333 410.11374443 -28.35811333 410.11374443 -29.3585968 410.1139679 C-31.52295227 410.11327036 -33.68722204 410.1054854 -35.8515625 410.09765625 C-37.35086012 410.09579151 -38.85015834 410.09436787 -40.34945679 410.09336853 C-44.29831622 410.08954779 -48.24713896 410.07972128 -52.19598389 410.06866455 C-56.22440087 410.05844091 -60.25282378 410.05386887 -64.28125 410.04882812 C-72.18751685 410.03809862 -80.09375386 410.0210275 -88 410 C-88.09950864 409.42094689 -88.19901728 408.84189379 -88.30154133 408.24529362 C-90.64253221 394.6460424 -93.06998716 381.06571826 -95.58634377 367.49789619 C-100.393235 341.55354389 -105.01025904 315.57668108 -109.5769043 289.58911133 C-110.61670089 283.6724976 -111.66078448 277.75664883 -112.70590687 271.84097385 C-113.53241978 267.15915763 -114.3563025 262.47688124 -115.1794796 257.79447746 C-115.5632486 255.61364332 -115.94785821 253.43295687 -116.3334446 251.25244331 C-118.95435703 236.42206212 -121.33943564 221.56654233 -123.5905323 206.67565155 C-124.42341834 201.23318849 -125.32909091 195.80319963 -126.25 190.375 C-126.56230149 188.52427273 -126.87446638 186.67352241 -127.18652344 184.82275391 C-127.34006287 183.91248444 -127.49360229 183.00221497 -127.65179443 182.06436157 C-127.76670227 181.38312225 -127.88161011 180.70188293 -128 180 C-121.61382792 179.89803304 -115.22786813 179.82829813 -108.84106445 179.78027344 C-106.67138829 179.76023919 -104.50176557 179.73300388 -102.33227539 179.69824219 C-99.201851 179.649363 -96.07214452 179.62694875 -92.94140625 179.609375 C-91.98166397 179.58872986 -91.02192169 179.56808472 -90.03309631 179.54681396 C-83.10231758 179.54453861 -76.49378788 180.55370887 -71.36801147 185.60980225 C-69.4036524 189.04194206 -68.80691053 192.6247012 -68.1081543 196.46875 C-67.94204745 197.34092163 -67.77594061 198.21309326 -67.60480022 199.11169434 C-65.27871759 211.53662438 -63.29135523 224.02288442 -61.26953125 236.5 C-60.830034 239.19723284 -60.38935067 241.89427147 -59.94865417 244.59130859 C-58.9166613 250.91072916 -57.88798042 257.23068331 -56.8608138 263.55088997 C-55.01527861 274.90626354 -53.16528252 286.26090975 -51.31206626 297.6150322 C-50.76928018 300.94131737 -50.22737027 304.26774093 -49.68738747 307.59448242 C-49.08832728 311.28457298 -48.48732798 314.97434316 -47.88598633 318.6640625 C-47.70885101 319.7590506 -47.5317157 320.8540387 -47.34921265 321.98220825 C-47.18533554 322.98533051 -47.02145844 323.98845276 -46.85261536 325.02197266 C-46.71124555 325.89197906 -46.56987574 326.76198547 -46.42422199 327.65835571 C-46.03564813 329.80322748 -45.55720398 331.89339016 -45 334 C-28.85455494 318.26795183 -15.7364046 301.65896811 -5.0625 281.8125 C-3.66860702 279.23722741 -2.27179934 276.66354079 -0.875 274.08984375 C-0.53763321 273.46619934 -0.20026642 272.84255493 0.14732361 272.20001221 C2.00642088 268.77603123 3.92079063 265.39981605 5.9375 262.06640625 C19.88024941 238.88308514 26.27908541 210.73456776 29 184 C29.11085938 183.02417969 29.22171875 182.04835938 29.3359375 181.04296875 C34.0553264 132.38224269 23.62641401 76.93432283 -3.75 35.80859375 C-7.08480451 28.31570486 -4.12224979 19.65526521 -2.5 12 C-2.26152344 10.84371094 -2.02304687 9.68742187 -1.77734375 8.49609375 C-1.19189634 5.66252827 -0.59928499 2.83066529 0 0 Z " fill="#3434FE" transform="translate(600,259)"/>
<path d="M0 0 C1.24244291 -0.00128164 1.24244291 -0.00128164 2.50998569 -0.00258917 C5.28912939 -0.00423802 8.06821292 0.00126772 10.84735107 0.00672913 C12.83806354 0.00701115 14.82877612 0.00685296 16.81948853 0.00628662 C22.22817916 0.00599925 27.63684769 0.01188633 33.04553318 0.01886058 C38.69632925 0.02510406 44.34712581 0.02569871 49.9979248 0.02688599 C60.70050181 0.02999636 71.40306862 0.0382058 82.10564113 0.04823548 C94.28929757 0.05940572 106.47295449 0.06490936 118.65661478 0.06993091 C143.72117576 0.08038865 168.78572769 0.09798242 193.85028076 0.12025452 C193.63806885 1.27420715 193.42585693 2.42815979 193.20721436 3.61708069 C192.9291888 5.15325987 192.6513676 6.68947604 192.37371826 8.22572327 C192.23377441 8.98365173 192.09383057 9.7415802 191.949646 10.5224762 C189.80924807 20.67796839 189.80924807 20.67796839 192.12371826 30.35072327 C195.45428725 33.76417972 199.80774614 33.29162842 204.36590576 33.43666077 C205.61629639 33.4785553 206.86668701 33.52044983 208.15496826 33.56361389 C209.45692139 33.6029303 210.75887451 33.6422467 212.10028076 33.68275452 C213.41770264 33.72593811 214.73512451 33.7691217 216.09246826 33.81361389 C219.34496864 33.91967369 222.59754468 34.02173475 225.85028076 34.12025452 C225.94382989 53.13119273 226.01431174 72.14208406 226.05752945 91.15320492 C226.07813189 99.98092289 226.106208 108.80849763 226.15203857 117.63612366 C226.19197751 125.33262133 226.21773043 133.02901523 226.22663474 140.72561365 C226.23183759 144.79883427 226.24401739 148.87175809 226.27320099 152.94488335 C226.3004819 156.78378979 226.30870041 160.62227901 226.30271149 164.46127319 C226.30380609 165.86527847 226.31168453 167.26929864 226.32710266 168.67321968 C226.44673793 180.13526567 224.5815719 187.92306085 216.71356201 196.39759827 C213.94369712 198.95841675 211.25481576 200.48103396 207.85028076 202.12025452 C206.76372192 202.65251396 206.76372192 202.65251396 205.6552124 203.19552612 C201.97017895 204.41040602 198.43733208 204.48096873 194.59637451 204.54090881 C193.74687729 204.56086977 192.89738007 204.58083073 192.0221405 204.60139656 C189.11079329 204.66484692 186.1994671 204.71184601 183.28778076 204.75697327 C182.24921936 204.7756867 181.21065796 204.79440014 180.140625 204.81368065 C148.02387095 205.38189192 115.89610196 205.17853395 83.77656174 205.00325119 C82.4056381 204.9957882 82.4056381 204.9957882 81.00701904 204.98817444 C80.09144855 204.98318935 79.17587807 204.97820427 78.23256302 204.97306812 C70.7013206 204.93367315 63.17010947 204.91415494 55.63878632 204.89815789 C48.27796799 204.88147707 40.91731176 204.8496439 33.55660248 204.80631179 C29.20139068 204.78100196 24.8463781 204.76190714 20.49108887 204.75893593 C16.43226317 204.75577883 12.37396933 204.73375012 8.31530952 204.69738007 C6.83552649 204.68731519 5.35567971 204.68391589 3.87586784 204.68791008 C-7.88274484 204.71356556 -15.75248517 203.00144791 -24.42706299 194.91322327 C-30.20249672 188.90205755 -32.39290769 182.74397809 -32.41714478 174.50569153 C-32.42567474 173.19087296 -32.43420471 171.87605438 -32.44299316 170.52139282 C-32.44229423 169.0761565 -32.44137121 167.63092026 -32.44024658 166.1856842 C-32.44623507 164.65424269 -32.45304136 163.12280419 -32.46060181 161.59136963 C-32.47823835 157.44034321 -32.48295625 153.28939931 -32.48423338 149.13833904 C-32.48565709 146.54148443 -32.48993091 143.94465064 -32.49522781 141.34780121 C-32.51372173 132.27828647 -32.5218994 123.20883045 -32.52032471 114.13929749 C-32.51912412 105.70163925 -32.54021178 97.26423715 -32.57181203 88.82664371 C-32.59801708 81.56951411 -32.6086902 74.31246793 -32.60741389 67.05529141 C-32.60690541 62.72674375 -32.61252483 58.3984237 -32.63376999 54.0699234 C-32.65322336 49.9953392 -32.6532288 45.92119807 -32.63873672 41.84659767 C-32.63665615 40.35755829 -32.64130444 38.86849067 -32.65345764 37.37949944 C-32.74172534 25.808607 -31.31295365 16.56909675 -23.14971924 7.87806702 C-16.02769643 1.61847666 -9.25735033 -0.03482435 0 0 Z M1.85028076 34.12025452 C1.85028076 79.00025452 1.85028076 123.88025452 1.85028076 170.12025452 C64.55028076 170.12025452 127.25028076 170.12025452 191.85028076 170.12025452 C191.85028076 125.24025452 191.85028076 80.36025452 191.85028076 34.12025452 C129.15028076 34.12025452 66.45028076 34.12025452 1.85028076 34.12025452 Z " fill="#FEE400" transform="translate(118.14971923828125,449.87974548339844)"/>
<path d="M0 0 C1.24244291 -0.00128164 1.24244291 -0.00128164 2.50998569 -0.00258917 C5.28912939 -0.00423802 8.06821292 0.00126772 10.84735107 0.00672913 C12.83806354 0.00701115 14.82877612 0.00685296 16.81948853 0.00628662 C22.22817916 0.00599925 27.63684769 0.01188633 33.04553318 0.01886058 C38.69632925 0.02510406 44.34712581 0.02569871 49.9979248 0.02688599 C60.70050181 0.02999636 71.40306862 0.0382058 82.10564113 0.04823548 C94.28929757 0.05940572 106.47295449 0.06490936 118.65661478 0.06993091 C143.72117576 0.08038865 168.78572769 0.09798242 193.85028076 0.12025452 C193.63806885 1.27420715 193.42585693 2.42815979 193.20721436 3.61708069 C192.9291888 5.15325987 192.6513676 6.68947604 192.37371826 8.22572327 C192.23377441 8.98365173 192.09383057 9.7415802 191.949646 10.5224762 C189.80924807 20.67796839 189.80924807 20.67796839 192.12371826 30.35072327 C195.45428725 33.76417972 199.80774614 33.29162842 204.36590576 33.43666077 C205.61629639 33.4785553 206.86668701 33.52044983 208.15496826 33.56361389 C209.45692139 33.6029303 210.75887451 33.6422467 212.10028076 33.68275452 C213.41770264 33.72593811 214.73512451 33.7691217 216.09246826 33.81361389 C219.3449493 33.91967306 222.59760129 34.02046605 225.85028076 34.12025452 C225.85028076 40.72025452 225.85028076 47.32025452 225.85028076 54.12025452 C215.02513501 58.74074356 204.17392797 62.88492674 192.85028076 66.12025452 C192.85028076 100.77025452 192.85028076 135.42025452 192.85028076 171.12025452 C129.49028076 171.12025452 66.13028076 171.12025452 0.85028076 171.12025452 C0.85028076 157.59025452 0.85028076 144.06025452 0.85028076 130.12025452 C-10.03971924 132.43025452 -20.92971924 134.74025452 -32.14971924 137.12025452 C-32.24020561 122.55960548 -32.31380899 107.99913247 -32.35696793 93.43826485 C-32.37754494 86.67655964 -32.40557159 79.91504225 -32.45147705 73.15345764 C-32.49578403 66.6241769 -32.5188793 60.09501771 -32.52922821 53.56559372 C-32.5366003 51.0785961 -32.55099618 48.59160874 -32.57263947 46.10469437 C-32.60181456 42.61241643 -32.6056692 39.12093613 -32.6038208 35.6285553 C-32.6182019 34.6078746 -32.63258301 33.58719391 -32.6473999 32.5355835 C-32.59219775 22.85230704 -29.83222812 14.99263466 -23.14971924 7.87806702 C-16.02769643 1.61847666 -9.25735033 -0.03482435 0 0 Z M1.85028076 34.12025452 C1.85028076 79.00025452 1.85028076 123.88025452 1.85028076 170.12025452 C64.55028076 170.12025452 127.25028076 170.12025452 191.85028076 170.12025452 C191.85028076 125.24025452 191.85028076 80.36025452 191.85028076 34.12025452 C129.15028076 34.12025452 66.45028076 34.12025452 1.85028076 34.12025452 Z " fill="#FFFE58" transform="translate(118.14971923828125,449.87974548339844)"/>
<path d="M0 0 C0.85332413 -0.00701431 1.70664825 -0.01402863 2.58583069 -0.02125549 C5.32550405 -0.03865612 8.0649609 -0.04510827 10.8046875 -0.046875 C11.74309479 -0.04754974 12.68150208 -0.04822449 13.64834595 -0.04891968 C28.1952903 -0.03231482 42.34307079 0.55301508 56.6796875 3.203125 C57.57929199 3.3587793 58.47889648 3.51443359 59.40576172 3.67480469 C83.67925456 7.96213764 107.63225504 16.23051547 129.6796875 27.203125 C130.33356445 27.52458496 130.98744141 27.84604492 131.66113281 28.17724609 C139.71022992 32.17285593 147.37052018 36.76110529 154.9921875 41.515625 C155.82371338 42.03165283 156.65523926 42.54768066 157.51196289 43.0793457 C158.28531982 43.57007568 159.05867676 44.06080566 159.85546875 44.56640625 C160.54552002 45.00251221 161.23557129 45.43861816 161.9465332 45.88793945 C163.6796875 47.203125 163.6796875 47.203125 165.6796875 50.203125 C164.75027344 50.3990625 163.82085938 50.595 162.86328125 50.796875 C154.6854419 52.77524698 149.41400915 54.87026591 144.6796875 62.203125 C141.54583109 61.56913833 139.22836439 60.49110702 136.50390625 58.83203125 C135.68801025 58.34500732 134.87211426 57.8579834 134.03149414 57.35620117 C132.71266235 56.56886597 132.71266235 56.56886597 131.3671875 55.765625 C102.46639905 38.94270285 69.97552844 28.51729435 36.6796875 25.203125 C35.6071875 25.09226563 34.5346875 24.98140625 33.4296875 24.8671875 C-30.63619716 19.27653247 -93.99650847 39.3827532 -143.27734375 80.48046875 C-149.61989283 85.80921622 -149.61989283 85.80921622 -155.5859375 91.546875 C-157.3203125 93.203125 -157.3203125 93.203125 -159.3203125 93.203125 C-160.88784918 90.13228763 -162.41960356 87.0449293 -163.9453125 83.953125 C-164.39132813 83.08042969 -164.83734375 82.20773438 -165.296875 81.30859375 C-165.709375 80.46425781 -166.121875 79.61992187 -166.546875 78.75 C-166.93439941 77.97495117 -167.32192383 77.19990234 -167.72119141 76.40136719 C-168.3203125 74.203125 -168.3203125 74.203125 -167.52246094 72.04711914 C-143.44860155 35.1198527 -84.38388634 13.96553108 -43.3203125 5.203125 C-28.98475529 2.39776673 -14.63186826 0.08132283 0 0 Z " fill="#930606" transform="translate(378.3203125,153.796875)"/>
<path d="M0 0 C34.52254192 33.63431186 53.12600712 95.88210493 54.16113281 142.94311523 C54.18085969 144.64821808 54.19467556 146.35339773 54.203125 148.05859375 C54.20882507 148.96956314 54.21452515 149.88053253 54.22039795 150.81910706 C54.22976316 152.72403834 54.23634771 154.62898521 54.24023438 156.53393555 C54.25005732 159.45454168 54.28120515 162.37447676 54.3125 165.29492188 C54.31902053 167.15364169 54.32427471 169.01236648 54.328125 170.87109375 C54.3404718 171.74293808 54.3528186 172.61478241 54.36553955 173.51304626 C54.36253845 174.32141434 54.35953735 175.12978241 54.35644531 175.96264648 C54.36191376 177.02659889 54.36191376 177.02659889 54.36749268 178.11204529 C53.89084522 180.56077112 52.83241995 181.36219483 51 183 C49.86102302 184.8659685 48.77938665 186.76732875 47.734375 188.6875 C47.42395264 189.25411346 47.11353027 189.82072693 46.79370117 190.4045105 C45.77444891 192.26715679 44.76232816 194.133583 43.75 196 C43.04128882 197.297365 42.3319709 198.59439873 41.62207031 199.89111328 C40.52316617 201.89860908 39.42466877 203.90631666 38.32806396 205.91506958 C34.82224019 212.33651855 31.27722488 218.73584733 27.7208252 225.12939453 C26.77107263 226.83711007 25.82253417 228.54550066 24.87402344 230.25390625 C21.94730005 235.52103655 19.00557828 240.77743577 16 246 C15 244 15 244 15.44970703 242.1184082 C15.71638184 241.35359131 15.98305664 240.58877441 16.2578125 239.80078125 C16.55147705 238.93267822 16.8451416 238.0645752 17.14770508 237.17016602 C17.63146606 235.75562134 17.63146606 235.75562134 18.125 234.3125 C23.52507448 217.9392579 27.25330915 201.16225309 29 184 C29.11085938 183.02417969 29.22171875 182.04835938 29.3359375 181.04296875 C34.0553264 132.38224269 23.62641401 76.93432283 -3.75 35.80859375 C-7.08480451 28.31570486 -4.12224979 19.65526521 -2.5 12 C-2.26152344 10.84371094 -2.02304687 9.68742187 -1.77734375 8.49609375 C-1.19189634 5.66252827 -0.59928499 2.83066529 0 0 Z " fill="#A50606" transform="translate(600,259)"/>
<path d="M0 0 C0.50938345 2.49840454 1.00763114 4.99823388 1.5 7.5 C1.64308594 8.19609375 1.78617188 8.8921875 1.93359375 9.609375 C2.88277373 14.49087203 3.13440046 19.02718299 3 24 C-29.0263759 41.51666163 -67.73053337 51.99976174 -104.3203125 52.203125 C-105.60029869 52.21364647 -105.60029869 52.21364647 -106.90614319 52.22438049 C-109.64581655 52.24178112 -112.3852734 52.24823327 -115.125 52.25 C-116.06340729 52.25067474 -117.00181458 52.25134949 -117.96865845 52.25204468 C-132.5156028 52.23543982 -146.66338329 51.65010992 -161 49 C-161.89960449 48.8443457 -162.79920898 48.68869141 -163.72607422 48.52832031 C-187.27031358 44.36979258 -210.51244144 36.42350402 -232 26 C-232 25.34 -232 24.68 -232 24 C-231.13342522 23.98786972 -231.13342522 23.98786972 -230.24934387 23.97549438 C-224.23070445 23.88936649 -218.21239126 23.78985921 -212.1940918 23.68261719 C-209.94870487 23.64435921 -207.70325731 23.60950079 -205.45776367 23.578125 C-202.22813263 23.53240583 -198.99891778 23.47442193 -195.76953125 23.4140625 C-194.76727005 23.40251129 -193.76500885 23.39096008 -192.7323761 23.37905884 C-191.32147957 23.3492543 -191.32147957 23.3492543 -189.88208008 23.31884766 C-189.05823318 23.30552399 -188.23438629 23.29220032 -187.38557434 23.2784729 C-184.66191037 22.96053412 -182.51490217 22.06600561 -180 21 C-172.90806731 20.71899889 -164.31317203 22.84341398 -158 26 C-157.47652965 28.24600101 -157.1716303 30.48963525 -156.85546875 32.7734375 C-156.15335661 35.11844051 -156.15335661 35.11844051 -154.16064453 36.60717773 C-149.37331252 38.7168432 -144.75252662 38.48073314 -139.57421875 38.51171875 C-137.92012749 38.53864555 -137.92012749 38.53864555 -136.23262024 38.56611633 C-132.71761881 38.62021004 -129.20275313 38.6541129 -125.6875 38.6875 C-123.30141341 38.7206738 -120.91534473 38.75516352 -118.52929688 38.79101562 C-112.68629585 38.87593641 -106.84333504 38.94275271 -101 39 C-100.67 36.03 -100.34 33.06 -100 30 C-92.96305994 27.38964083 -86.23477195 26.16930546 -78.8125 25.1875 C-53.09220872 21.47161964 -28.83099857 13.20337825 -5.578125 1.6875 C-2 0 -2 0 0 0 Z " fill="#A00606" transform="translate(506,630)"/>
<path d="M0 0 C8.97506148 4.77619543 17.70990594 9.91675857 26.4375 15.125 C27.8680839 15.97677853 29.29874877 16.82842108 30.72949219 17.67993164 C39.94670205 23.16812376 49.15697731 28.66802003 58.34375 34.20703125 C61.76811654 36.26889616 65.20873296 38.30130998 68.65625 40.32421875 C69.59114258 40.87601807 70.52603516 41.42781738 71.48925781 41.99633789 C73.29239716 43.0600753 75.09891063 44.1181195 76.90917969 45.16967773 C77.70743164 45.64219971 78.50568359 46.11472168 79.328125 46.6015625 C80.0387207 47.01744629 80.74931641 47.43333008 81.48144531 47.86181641 C81.98256836 48.23741699 82.48369141 48.61301758 83 49 C83 49.66 83 50.32 83 51 C81.49389648 52.16992188 81.49389648 52.16992188 79.37109375 53.46875 C78.5920166 53.95158447 77.81293945 54.43441895 77.01025391 54.93188477 C76.16124512 55.44936279 75.31223633 55.96684082 74.4375 56.5 C72.66185088 57.6013996 70.88711867 58.70427871 69.11328125 59.80859375 C67.79384521 60.6281958 67.79384521 60.6281958 66.44775391 61.46435547 C63.29850404 63.44009671 60.20996955 65.48755607 57.125 67.5625 C46.55103886 74.6743634 35.87172413 81.62756721 25.20381165 88.59732056 C21.60438823 90.94925133 18.00959127 93.3080383 14.41796875 95.671875 C12.88295942 96.67730767 11.34781706 97.6825373 9.8125 98.6875 C9.13074707 99.13859131 8.44899414 99.58968262 7.74658203 100.05444336 C3.22787775 103 3.22787775 103 1 103 C0.8268119 93.52094478 0.66048904 84.04177792 0.5 74.5625 C0.48812275 73.8612072 0.4762455 73.1599144 0.46400833 72.4373703 C0.05732276 48.29023575 -0.13787123 24.15079766 0 0 Z " fill="#FFE404" transform="translate(182,501)"/>
<path d="M0 0 C0.66 0 1.32 0 2 0 C3.93827812 3.6666619 5.81751654 7.3606046 7.6875 11.0625 C8.23728516 12.10083984 8.78707031 13.13917969 9.35351562 14.20898438 C13.24469759 22.01613291 13.24469759 22.01613291 12.05859375 26.78515625 C11.37925781 27.84605469 10.69992188 28.90695312 10 30 C9.43023437 31.16273438 8.86046875 32.32546875 8.2734375 33.5234375 C7.96841309 34.13840088 7.66338867 34.75336426 7.34912109 35.38696289 C-5.23115783 61.06145194 -12.81814818 88.64222103 -16 117 C-16.13148438 118.10601562 -16.26296875 119.21203125 -16.3984375 120.3515625 C-18.13098555 138.09847365 -17.10013612 156.2406598 -16 174 C-19.81248426 174.02887236 -23.6249407 174.04675492 -27.4375 174.0625 C-28.52611328 174.07087891 -29.61472656 174.07925781 -30.73632812 174.08789062 C-31.77080078 174.09111328 -32.80527344 174.09433594 -33.87109375 174.09765625 C-35.30859985 174.10551147 -35.30859985 174.10551147 -36.77514648 174.11352539 C-39 174 -39 174 -40 173 C-41.00922579 166.61212062 -41.16724868 160.13467204 -41.203125 153.6796875 C-41.21013931 152.82636337 -41.21715363 151.97303925 -41.22438049 151.09385681 C-41.24178112 148.35418345 -41.24823327 145.6147266 -41.25 142.875 C-41.25067474 141.93659271 -41.25134949 140.99818542 -41.25204468 140.03134155 C-41.23543982 125.4843972 -40.65010992 111.33661671 -38 97 C-37.8443457 96.10039551 -37.68869141 95.20079102 -37.52832031 94.27392578 C-31.92030355 62.52314823 -20.09403332 25.71637045 0 0 Z " fill="#AB0606" transform="translate(167,276)"/>
<path d="M0 0 C6.93 0 13.86 0 21 0 C21 11.88 21 23.76 21 36 C32.88 36 44.76 36 57 36 C57 42.93 57 49.86 57 57 C45.12 57 33.24 57 21 57 C21 59.97 21 62.94 21 66 C14.07 66 7.14 66 0 66 C-0.33 63.36 -0.66 60.72 -1 58 C-9.25 57.67 -17.5 57.34 -26 57 C-25.02675226 49.70064197 -24.02781764 43.09736173 -22 36 C-14.74 36 -7.48 36 0 36 C0 24.12 0 12.24 0 0 Z " fill="#8E0000" transform="translate(380,373)"/>
<path d="M0 0 C8.97501021 4.77616815 17.7103119 9.91614213 26.4375 15.125 C27.85491861 15.96942351 29.27239961 16.81374229 30.68994141 17.65795898 C33.49343966 19.32814993 36.29610882 20.99971994 39.09814453 22.67236328 C42.55083171 24.7330505 46.00738671 26.78716786 49.46484375 28.83984375 C51.26838175 29.91380631 53.0717803 30.98800309 54.875 32.0625 C55.68767334 32.54412598 56.50034668 33.02575195 57.33764648 33.52197266 C58.06927002 33.95944824 58.80089355 34.39692383 59.5546875 34.84765625 C60.17843262 35.21898682 60.80217773 35.59031738 61.44482422 35.97290039 C63 37 63 37 65 39 C60.18570004 40.62154886 55.36996078 42.23873152 50.55297852 43.85229492 C48.92271691 44.39901828 47.29281905 44.94682773 45.66333008 45.49584961 C35.70796015 48.84914032 25.7292208 52.04200166 15.63452148 54.95117188 C11.64049887 56.10374265 7.66273765 57.3041292 3.6875 58.51953125 C2 59 2 59 1 59 C0.09875284 45.77696665 -0.12484823 32.62576356 -0.0625 19.375 C-0.05746655 17.48177204 -0.05290696 15.58854276 -0.04882812 13.6953125 C-0.03798802 9.1301747 -0.02082912 4.56510269 0 0 Z " fill="#FFFE56" transform="translate(182,501)"/>
<path d="M0 0 C0 3.47366801 -0.79632706 4.82204739 -2.45703125 7.83984375 C-2.9878833 8.81179688 -3.51873535 9.78375 -4.06567383 10.78515625 C-4.64212646 11.82542969 -5.2185791 12.86570312 -5.8125 13.9375 C-6.68588013 15.53078125 -6.68588013 15.53078125 -7.5769043 17.15625 C-9.37888749 20.44067938 -11.18921687 23.72041588 -13 27 C-14.10480478 29.01136838 -15.2090016 31.02307085 -16.3125 33.03515625 C-18.86865824 37.69361344 -21.4314534 42.34836289 -24 47 C-24.66 47 -25.32 47 -26 47 C-27.70190215 41.75648771 -29.17009001 36.50375674 -28 31 C-24.77869863 25.63456776 -19.62091407 21.73239141 -14.91308594 17.71337891 C-10.7244097 13.96195856 -7.43166072 9.43408613 -4 5 C-2.66865106 3.33174775 -1.33586033 1.66464192 0 0 Z " fill="#88070F" transform="translate(582,563)"/>
<path d="M0 0 C0 3.34355667 -0.66740071 4.66901275 -2.25 7.5625 C-2.66765625 8.34753906 -3.0853125 9.13257813 -3.515625 9.94140625 C-5.18226903 12.25277837 -6.33849803 13.04577933 -9 14 C-9.99 14 -10.98 14 -12 14 C-11.38511719 13.32453125 -10.77023437 12.6490625 -10.13671875 11.953125 C-9.32847656 11.06109375 -8.52023437 10.1690625 -7.6875 9.25 C-6.88699219 8.36828125 -6.08648438 7.4865625 -5.26171875 6.578125 C-3.39083089 4.44550672 -1.65915714 2.29812057 0 0 Z " fill="#99313B" transform="translate(582,563)"/>
<path d="M0 0 C0.66 0.33 1.32 0.66 2 1 C1.43454163 4.95820859 0.19097652 7.6659053 -2 11 C-3 9 -3 9 -2.44140625 6.8359375 C-2.15136719 6.02382813 -1.86132812 5.21171875 -1.5625 4.375 C-1.27503906 3.55773437 -0.98757813 2.74046875 -0.69140625 1.8984375 C-0.46324219 1.27195312 -0.23507812 0.64546875 0 0 Z " fill="#993850" transform="translate(618,494)"/>
<path d="" fill="#E9B5B5" transform="translate(0,0)"/>
</svg>
